<?xml version="1.0" standalone="no"?>
<!DOCTYPE svg PUBLIC "-//W3C//DTD SVG 20010904//EN"
 "http://www.w3.org/TR/2001/REC-SVG-20010904/DTD/svg10.dtd">
<svg version="1.0" xmlns="http://www.w3.org/2000/svg"
 width="1004.000000pt" height="1004.000000pt" viewBox="0 0 1004.000000 1004.000000"
 preserveAspectRatio="xMidYMid meet">
<metadata>
Created by potrace 1.14, written by Peter Selinger 2001-2017
</metadata>
<g transform="translate(0.000000,1004.000000) scale(0.100000,-0.100000)"
fill="#000000" stroke="none">
<path d="M3845 9676 c-205 -43 -392 -190 -474 -371 -7 -16 -17 -37 -21 -46
-15 -29 -41 -164 -43 -224 -5 -97 31 -261 65 -302 6 -7 7 -13 2 -13 -5 0 -4
-4 1 -8 6 -4 16 -18 22 -32 7 -14 28 -52 47 -85 19 -33 49 -87 66 -120 18 -33
38 -67 46 -76 8 -8 14 -19 14 -23 0 -5 41 -79 90 -167 50 -87 90 -163 90 -169
0 -5 5 -10 10 -10 6 0 10 -4 10 -10 0 -5 23 -48 50 -96 28 -48 50 -88 50 -90
0 -2 23 -41 50 -88 28 -47 50 -89 50 -95 0 -6 5 -11 10 -11 6 0 10 -9 10 -20
0 -11 3 -20 8 -20 4 0 12 -10 18 -23 6 -12 23 -44 39 -72 15 -27 66 -117 112
-200 l84 -150 -27 -57 c-15 -32 -31 -58 -36 -58 -4 0 -7 -3 -6 -7 2 -8 -14
-41 -55 -112 -11 -20 -34 -63 -52 -96 -66 -123 -109 -202 -142 -259 -19 -32
-35 -64 -36 -70 -1 -6 -5 -13 -8 -16 -3 -3 -19 -30 -35 -60 -16 -30 -31 -57
-34 -60 -3 -3 -19 -32 -36 -65 -53 -105 -89 -169 -101 -183 -7 -7 -13 -17 -13
-22 0 -5 -35 -74 -78 -152 -44 -79 -96 -174 -117 -213 -39 -72 -59 -108 -127
-230 -21 -38 -48 -90 -60 -115 -12 -25 -25 -47 -28 -50 -3 -3 -18 -27 -32 -55
-61 -118 -73 -140 -78 -145 -9 -9 -34 -65 -32 -72 1 -5 -2 -8 -7 -8 -5 0 -19
-21 -31 -47 -12 -27 -25 -50 -29 -53 -3 -3 -20 -32 -37 -65 -48 -94 -136 -259
-144 -270 -7 -9 -28 -47 -116 -215 -11 -19 -21 -37 -24 -40 -3 -3 -19 -32 -35
-65 -17 -33 -33 -62 -36 -65 -3 -3 -14 -23 -25 -45 -10 -22 -21 -42 -25 -45
-4 -3 -14 -21 -22 -40 -9 -19 -31 -62 -50 -95 -18 -33 -49 -89 -69 -125 -19
-36 -46 -85 -60 -110 -14 -25 -45 -81 -68 -125 -23 -44 -53 -98 -65 -120 -12
-22 -37 -67 -55 -100 -51 -94 -90 -166 -120 -220 -15 -27 -44 -81 -65 -120
-21 -38 -45 -83 -55 -100 -22 -37 -99 -180 -118 -217 -7 -15 -18 -30 -23 -33
-5 -4 -7 -11 -4 -16 4 -5 3 -9 -2 -9 -9 0 -33 -49 -32 -64 0 -5 -3 -12 -8 -15
-5 -3 -23 -31 -39 -61 -16 -30 -31 -57 -34 -60 -5 -5 -37 -65 -99 -185 -14
-27 -28 -52 -31 -55 -5 -5 -10 -14 -82 -153 -24 -45 -46 -84 -49 -87 -3 -3
-14 -23 -25 -45 -10 -22 -20 -42 -23 -45 -6 -5 -10 -12 -81 -145 -23 -44 -46
-84 -51 -89 -5 -6 -147 -10 -341 -11 -311 -1 -424 -9 -463 -33 -5 -4 -18 -8
-28 -9 -20 -3 -81 -35 -143 -75 -85 -55 -174 -157 -222 -258 -34 -72 -64 -165
-55 -174 4 -3 2 -6 -4 -6 -17 0 -8 -227 12 -295 16 -56 63 -164 75 -175 3 -3
22 -27 42 -55 59 -80 215 -204 258 -205 9 0 20 -4 26 -10 5 -5 45 -19 89 -30
80 -20 106 -20 4495 -19 4674 1 4473 -1 4577 44 124 54 150 72 244 167 64 64
157 216 142 232 -3 3 0 6 7 6 7 0 11 3 7 6 -3 3 -2 17 3 30 33 86 35 241 5
364 -4 14 -7 31 -7 38 -1 6 -5 12 -10 12 -4 0 -7 3 -6 7 4 15 -42 105 -79 156
-57 78 -163 176 -190 177 -7 0 -13 4 -13 9 0 14 -127 65 -205 83 -30 6 -186
12 -385 13 -184 2 -338 3 -342 4 -7 1 -64 102 -171 306 -18 33 -34 62 -37 65
-3 3 -12 19 -20 35 -8 17 -19 33 -25 37 -5 4 -7 8 -2 8 4 0 -4 18 -18 40 -14
22 -25 44 -25 49 0 5 -7 14 -15 21 -9 7 -13 15 -11 18 3 3 -3 17 -13 31 -10
14 -40 67 -66 116 -27 50 -56 104 -65 120 -9 17 -30 55 -46 85 -16 30 -33 58
-39 62 -7 5 -7 8 0 8 7 0 7 3 0 8 -5 4 -25 36 -44 72 -72 138 -87 166 -103
190 -8 14 -33 59 -55 100 -55 103 -102 191 -194 358 -44 78 -79 146 -79 151 0
5 -6 16 -13 23 -7 7 -28 42 -46 78 -18 36 -38 71 -44 79 -6 7 -12 20 -13 28
-2 8 -10 23 -18 32 -9 10 -16 21 -16 24 0 4 -29 59 -65 123 -36 64 -65 122
-65 129 0 7 -4 15 -8 17 -5 2 -27 37 -49 78 -94 173 -135 248 -180 330 -17 30
-45 82 -63 115 -18 33 -59 108 -91 167 -33 59 -59 111 -59 117 0 6 -3 11 -7
11 -5 0 -13 10 -19 23 -11 22 -46 89 -139 262 -27 50 -51 92 -54 95 -3 3 -16
25 -28 50 -12 25 -47 90 -78 145 -31 55 -61 112 -66 128 -6 15 -15 27 -20 27
-5 0 -9 9 -9 20 0 11 -3 20 -7 20 -5 0 -13 10 -19 23 -15 31 -100 189 -146
272 -22 38 -40 74 -41 80 -1 5 -5 12 -8 15 -3 3 -23 37 -43 75 -59 109 -107
197 -127 232 -10 18 -35 63 -55 100 -20 37 -47 86 -59 108 -12 22 -38 69 -57
105 -20 36 -45 81 -56 101 -11 21 -35 66 -53 100 -18 35 -35 66 -38 69 -4 3
-17 25 -30 50 -12 25 -32 62 -43 83 -13 23 -17 44 -12 55 4 9 6 20 6 25 -1 4
2 7 6 7 5 0 19 24 32 53 13 28 26 54 29 57 3 3 24 41 47 85 119 235 229 441
238 447 6 4 8 8 4 8 -4 0 14 39 39 88 97 181 143 269 182 347 23 44 52 100 65
125 84 156 115 216 115 224 -1 5 3 12 8 15 29 21 92 190 100 271 20 177 -7
304 -98 459 -34 60 -122 147 -196 197 -45 30 -130 73 -158 80 -163 39 -255 42
-372 12 -43 -11 -84 -24 -90 -30 -7 -6 -13 -8 -13 -4 0 6 -59 -24 -118 -61
-29 -18 -146 -134 -174 -173 -10 -13 -18 -30 -18 -37 0 -7 -4 -13 -8 -13 -5 0
-26 -37 -47 -82 -21 -46 -46 -94 -54 -107 -8 -13 -16 -31 -17 -39 -2 -8 -8
-18 -14 -22 -7 -4 -11 -10 -10 -14 1 -6 -110 -230 -229 -465 -32 -62 -33 -63
-45 -40 -12 22 -27 50 -114 198 -18 31 -38 68 -45 84 -6 15 -15 27 -19 27 -4
0 -8 4 -8 10 0 5 -20 43 -45 83 -25 41 -45 80 -45 86 0 6 -4 11 -10 11 -5 0
-10 4 -10 9 0 5 -23 49 -51 98 -28 48 -60 102 -70 120 -27 47 -70 115 -83 130
-56 65 -145 143 -165 143 -6 0 -11 4 -11 9 0 14 -135 70 -211 87 -53 12 -217
13 -274 0z m1185 -3946 c0 -6 10 -27 23 -48 13 -20 41 -71 63 -112 21 -41 41
-77 44 -80 3 -3 13 -21 22 -40 10 -19 36 -69 59 -110 54 -97 89 -161 128 -232
17 -32 45 -84 62 -115 18 -32 45 -82 60 -110 16 -29 42 -77 58 -105 16 -29 43
-80 61 -113 18 -33 46 -85 63 -115 16 -30 41 -75 54 -100 14 -25 30 -51 35
-57 6 -7 7 -13 2 -13 -5 0 -4 -4 1 -8 9 -6 55 -87 80 -139 5 -13 13 -23 17
-23 3 0 9 -13 13 -30 4 -16 10 -30 14 -30 3 0 12 -12 18 -27 6 -16 28 -57 48
-93 47 -84 113 -204 139 -255 12 -22 23 -42 26 -45 3 -3 16 -25 29 -50 13 -25
39 -74 58 -110 19 -36 52 -96 74 -135 22 -38 47 -83 55 -100 8 -16 28 -53 43
-81 15 -27 45 -81 66 -120 21 -38 50 -91 65 -119 15 -27 40 -75 56 -105 16
-30 31 -57 34 -60 3 -3 13 -21 22 -40 10 -19 33 -62 51 -95 18 -33 51 -94 74
-135 23 -41 57 -104 77 -140 20 -36 44 -81 54 -100 9 -19 19 -37 22 -40 6 -6
53 -93 100 -185 19 -38 38 -72 41 -75 4 -3 15 -23 26 -45 11 -22 29 -56 40
-75 11 -19 39 -71 63 -115 23 -44 47 -86 53 -92 7 -10 4 -13 -9 -14 -115 -7
-4394 -2 -4394 5 0 5 17 41 39 80 21 39 58 107 81 151 24 44 46 85 50 90 4 6
27 46 50 90 49 91 92 172 123 230 12 22 24 42 27 45 3 3 15 25 28 50 69 133
108 206 113 210 3 3 14 23 26 45 22 43 68 129 100 185 11 19 37 69 59 110 21
41 42 80 47 85 9 12 78 140 110 205 12 25 25 47 28 50 3 3 48 84 99 180 52 96
96 177 99 180 3 3 14 21 23 40 10 19 37 71 61 115 24 44 61 111 81 150 21 38
43 73 49 77 7 4 8 8 3 8 -4 0 -2 10 6 23 8 12 34 58 58 102 23 44 54 100 68
125 14 25 45 83 70 130 25 47 51 92 58 100 7 8 12 17 11 20 -1 5 36 73 118
220 20 36 43 82 52 103 9 20 20 37 25 37 4 0 8 4 8 9 0 10 253 476 270 496 7
8 9 15 5 15 -4 0 -2 7 5 15 11 13 46 77 88 160 9 17 18 32 22 35 3 3 12 20 19
38 13 30 31 44 31 22z"/>
</g>
</svg>
