<svg width="579" height="386" viewBox="0 0 579 386" fill="none" xmlns="http://www.w3.org/2000/svg">
<path d="M490.867 87.3241H334.275C326.442 87.3241 320.091 93.6746 320.091 101.508V143.151C320.091 150.984 326.442 157.335 334.275 157.335H490.867C498.701 157.335 505.051 150.984 505.051 143.151V101.508C505.051 93.6746 498.701 87.3241 490.867 87.3241Z" fill="#FFFFFE" stroke="#E1E4E5" stroke-width="2.321"/>
<path d="M482.421 108.536H377.148C374.829 108.536 372.95 110.416 372.95 112.734V112.735C372.95 115.053 374.829 116.932 377.148 116.932H482.421C484.739 116.932 486.619 115.053 486.619 112.735V112.734C486.619 110.416 484.739 108.536 482.421 108.536Z" fill="url(#paint0_linear_9_120)"/>
<path d="M442.379 127.266H377.148C374.829 127.266 372.95 129.145 372.95 131.463V131.464C372.95 133.782 374.829 135.662 377.148 135.662H442.379C444.697 135.662 446.576 133.782 446.576 131.464V131.463C446.576 129.145 444.697 127.266 442.379 127.266Z" fill="url(#paint1_linear_9_120)"/>
<path fill-rule="evenodd" clip-rule="evenodd" d="M348.894 140.354C339.011 140.354 330.998 132.228 330.998 122.206C330.998 112.183 339.011 104.057 348.894 104.057C358.777 104.057 366.79 112.183 366.79 122.206C366.79 132.228 358.777 140.354 348.894 140.354Z" fill="#7F5AF0"/>
<path d="M355.196 119.181L347.635 127.247L343.097 122.408" stroke="white" stroke-width="4.381" stroke-linecap="round" stroke-linejoin="round"/>
<path d="M295.6 208.725V293.188C295.6 299.358 290.598 304.349 284.429 304.349H85.2571C79.0882 304.349 74.0863 299.358 74.0863 293.188V208.725C74.0863 202.553 79.0895 197.548 85.2571 197.548H284.429C290.597 197.548 295.6 202.553 295.6 208.725Z" fill="#FFFFFE" stroke="#E1E4E5" stroke-width="2.321"/>
<path d="M110.769 252H87.2314C85.4494 252 84 250.55 84 248.769V225.231C84 223.45 85.4494 222 87.2314 222H110.769C112.55 222 114 223.45 114 225.231V248.769C114 250.557 112.55 252 110.769 252Z" fill="#2CB67D"/>
<path d="M110.769 289H87.2314C85.4494 289 84 287.55 84 285.769V262.231C84 260.45 85.4494 259 87.2314 259H110.769C112.55 259 114 260.45 114 262.231V285.769C114 287.557 112.55 289 110.769 289Z" fill="#7F5AF0"/>
<path d="M295.6 208.725C295.6 209.468 295.305 210.181 294.779 210.707C294.253 211.232 293.54 211.527 292.797 211.527H76.8893C76.146 211.527 75.4332 211.232 74.9075 210.707C74.3819 210.181 74.0865 209.468 74.0863 208.725C74.0863 202.553 79.0895 197.548 85.2571 197.548H284.429C290.597 197.548 295.6 202.553 295.6 208.725Z" fill="white" stroke="#E1E4E5" stroke-width="2.321"/>
<path d="M88.477 204.812C88.4758 205.411 88.2375 205.985 87.8142 206.409C87.3909 206.832 86.817 207.071 86.2182 207.072C85.6194 207.071 85.0456 206.832 84.6223 206.409C84.199 205.985 83.9607 205.411 83.9595 204.812C83.9605 204.214 84.1984 203.64 84.6211 203.216C85.0439 202.793 85.6172 202.554 86.2156 202.552C87.4669 202.567 88.477 203.573 88.477 204.812ZM97.2057 204.812C97.2047 205.411 96.9664 205.985 96.5431 206.408C96.1198 206.832 95.5459 207.071 94.947 207.072C94.3482 207.071 93.7744 206.832 93.3512 206.408C92.928 205.984 92.6899 205.41 92.6889 204.812C92.6899 204.213 92.9277 203.64 93.3503 203.216C93.773 202.793 94.3461 202.554 94.9444 202.552C96.1957 202.566 97.2057 203.573 97.2057 204.812ZM105.934 204.812C105.933 205.411 105.695 205.985 105.272 206.408C104.849 206.832 104.275 207.071 103.676 207.072C103.077 207.071 102.503 206.832 102.08 206.408C101.656 205.985 101.418 205.411 101.417 204.812C101.418 204.213 101.656 203.64 102.079 203.216C102.502 202.793 103.075 202.554 103.673 202.552C104.939 202.566 105.934 203.571 105.934 204.812Z" fill="#E1E4E5" stroke="#E1E4E5" stroke-width="1.583"/>
<path d="M207.53 222.93H175.056C169.387 222.93 164.791 227.526 164.791 233.195C164.791 238.865 169.387 243.461 175.056 243.461H207.53C213.2 243.461 217.795 238.865 217.795 233.195C217.795 227.526 213.2 222.93 207.53 222.93Z" fill="url(#paint2_linear_9_120)"/>
<path d="M207.53 273.695H175.056C169.387 273.695 164.791 278.29 164.791 283.96C164.791 289.629 169.387 294.225 175.056 294.225H207.53C213.2 294.225 217.795 289.629 217.795 283.96C217.795 278.29 213.2 273.695 207.53 273.695Z" fill="url(#paint3_linear_9_120)"/>
<path d="M186.627 248.313H175.056C169.387 248.313 164.791 252.908 164.791 258.578C164.791 264.247 169.387 268.843 175.056 268.843H186.627C192.296 268.843 196.892 264.247 196.892 258.578C196.892 252.908 192.296 248.313 186.627 248.313Z" fill="url(#paint4_linear_9_120)"/>
<path d="M229.553 248.313H217.982C212.313 248.313 207.717 252.908 207.717 258.578C207.717 264.247 212.313 268.843 217.982 268.843H229.553C235.222 268.843 239.818 264.247 239.818 258.578C239.818 252.908 235.222 248.313 229.553 248.313Z" fill="url(#paint5_linear_9_120)"/>
<path d="M272.479 248.313H260.908C255.239 248.313 250.643 252.908 250.643 258.578C250.643 264.247 255.239 268.843 260.908 268.843H272.479C278.149 268.843 282.744 264.247 282.744 258.578C282.744 252.908 278.149 248.313 272.479 248.313Z" fill="url(#paint6_linear_9_120)"/>
<path d="M272.479 222.93H240.005C234.336 222.93 229.74 227.526 229.74 233.195C229.74 238.865 234.336 243.461 240.005 243.461H272.479C278.149 243.461 282.744 238.865 282.744 233.195C282.744 227.526 278.149 222.93 272.479 222.93Z" fill="url(#paint7_linear_9_120)"/>
<path d="M272.479 273.695H240.005C234.336 273.695 229.74 278.29 229.74 283.96C229.74 289.629 234.336 294.225 240.005 294.225H272.479C278.149 294.225 282.744 289.629 282.744 283.96C282.744 278.29 278.149 273.695 272.479 273.695Z" fill="url(#paint8_linear_9_120)"/>
<path d="M297.616 174.327C297.615 174.926 297.377 175.5 296.953 175.924C296.53 176.347 295.956 176.586 295.358 176.587C294.759 176.586 294.185 176.347 293.762 175.924C293.338 175.5 293.1 174.926 293.099 174.327C293.1 173.729 293.338 173.155 293.76 172.732C294.183 172.308 294.756 172.069 295.354 172.067C296.606 172.082 297.616 173.088 297.616 174.327ZM306.345 174.327C306.344 174.926 306.106 175.5 305.682 175.923C305.259 176.347 304.685 176.586 304.086 176.587C303.487 176.586 302.913 176.347 302.49 175.923C302.067 175.5 301.829 174.926 301.828 174.327C301.829 173.728 302.067 173.155 302.489 172.731C302.912 172.308 303.485 172.069 304.084 172.067C305.335 172.081 306.345 173.088 306.345 174.327ZM315.074 174.327C315.073 174.926 314.834 175.5 314.411 175.923C313.988 176.347 313.414 176.586 312.815 176.587C312.216 176.586 311.642 176.347 311.219 175.923C310.796 175.499 310.558 174.925 310.557 174.327C310.558 173.728 310.796 173.155 311.219 172.731C311.641 172.308 312.214 172.069 312.812 172.067C314.079 172.081 315.074 173.086 315.074 174.327Z" fill="#E1E4E5" stroke="#E1E4E5" stroke-width="1.583"/>
<path d="M333.662 215.658L326.596 241.087M317.658 236.848L309.181 228.372L317.658 219.895V236.848ZM343.087 219.895L351.564 228.372L343.087 236.848V219.895Z" stroke="white" stroke-width="9.389" stroke-linecap="round" stroke-linejoin="round"/>
<path d="M287.367 124.955H275.796C270.127 124.955 265.531 129.551 265.531 135.22C265.531 140.89 270.127 145.485 275.796 145.485H287.367C293.037 145.485 297.632 140.89 297.632 135.22C297.632 129.551 293.037 124.955 287.367 124.955Z" fill="url(#paint9_linear_9_120)"/>
<path d="M269.485 201.476L278.194 198.827L316.057 197.712L324.596 200.043L323.482 220.851L304.163 233.176L285.426 232.801L273.646 222.068L271.031 211.425L269.485 201.476Z" fill="#F8AE9D"/>
<path d="M378.798 234.938C376.057 229.287 373.431 224.75 371.089 221.168C366.49 214.111 359.456 208.992 351.328 206.785L320.446 198.417C320.446 198.417 318.843 229.276 297.603 229.276C276.364 229.276 272.225 200.339 272.225 200.339L236.489 214.597C235.261 215.074 226.972 217.939 217.33 238.622C208.143 258.315 204.129 268.4 204.129 268.4L240.946 279.032L243.242 312.141L242.458 331.05L354.204 330.799L353.579 309.185L354.045 276.041L355.444 278.303L392.635 263.386C392.635 263.386 387.848 253.562 378.798 234.938Z" fill="#7F5AF0"/>
<path d="M293.995 212.485C303.058 212.318 313.354 194.639 313.354 194.639L313.945 149.228C314.419 136.149 306.283 125.005 291.619 124.944L290.257 125.005C276.608 125.656 265.8 135.542 265.435 147.724C265.09 159.061 264.883 171.586 265.327 177.637C266.254 190.162 280.544 188.048 280.544 188.048C280.573 188.048 280.504 194.357 280.544 198.043C280.652 206.32 290.356 212.766 293.995 212.485Z" fill="#F8AE9D"/>
<path d="M309.417 151.719C309.667 151.601 319.428 148.34 319.647 157.983C319.865 167.626 309.645 165.847 309.625 165.571C309.604 165.294 309.417 151.719 309.417 151.719ZM207.302 269.322L192.327 299.373C190.654 302.731 189.871 306.462 190.053 310.209C190.622 321.874 200.252 331.05 211.929 331.05L255.224 330.37L256.75 308.969L224.073 301.09L236.455 277.679L207.302 269.322ZM390.737 264.149C390.737 264.149 400.026 291.744 410.157 316.826C410.362 317.327 410.589 318.259 410.771 318.771C413.056 324.99 406.177 331.05 399.23 331.05L340.685 330.948V311.914L377.104 304.183L363.914 274.893L390.737 264.149Z" fill="#F8AE9D"/>
<path d="M273.396 311.039C273.407 311.107 274.737 310.686 276.955 310.55C279.16 310.402 282.288 310.652 285.403 311.983C288.518 313.313 290.872 315.394 292.282 317.087C293.714 318.782 294.328 320.044 294.385 319.998C294.408 319.987 294.272 319.668 293.965 319.123C293.525 318.354 293.027 317.621 292.475 316.929C291.088 315.166 288.723 313.005 285.539 311.653C282.356 310.3 279.16 310.072 276.932 310.3C276.049 310.376 275.175 310.524 274.317 310.743C273.714 310.891 273.384 311.016 273.396 311.039ZM275.397 306.434C275.42 306.525 276.773 305.854 279.104 305.786C281.424 305.683 284.687 306.388 287.734 308.23C290.781 310.083 293.067 312.426 294.681 314.109C295.454 314.927 296.091 315.61 296.591 316.133C297.046 316.61 297.296 316.872 297.319 316.849C297.342 316.837 297.114 316.542 296.693 316.041C296.101 315.328 295.495 314.627 294.874 313.938C293.294 312.21 291.02 309.811 287.915 307.923C284.811 306.047 281.458 305.365 279.092 305.536C277.91 305.604 276.966 305.82 276.341 306.036C276.022 306.127 275.795 306.24 275.636 306.309C275.477 306.377 275.397 306.422 275.397 306.434Z" fill="#EB996E"/>
<path d="M352.998 308.423H344.596C344.596 308.423 325.63 301.567 321.73 302.226C318.217 302.818 305.358 311.357 302.833 313.05C302.549 313.244 302.344 313.505 302.219 313.824C301.972 314.493 301.994 315.232 302.28 315.885C302.566 316.538 303.095 317.055 303.754 317.326L304.016 317.44L303.902 317.826C303.752 318.323 303.686 318.842 303.709 319.361C303.799 321.169 306.233 321.715 307.154 320.157L306.665 321.021C306.469 321.371 306.374 321.769 306.392 322.17L306.438 322.954C306.462 323.379 306.614 323.786 306.873 324.123C307.133 324.46 307.488 324.71 307.893 324.842C308.277 324.969 308.69 324.983 309.082 324.88C309.474 324.777 309.827 324.562 310.099 324.262C311.725 322.465 315.249 318.872 317.638 318.474C319.752 318.122 323.288 318.076 325.426 318.088C325.955 318.089 326.473 318.25 326.909 318.55C327.345 318.851 327.68 319.276 327.87 319.771C326.46 319.873 316.602 325.012 313.112 326.854C312.031 327.423 311.224 328.446 311.088 329.663C310.963 330.754 311.508 331.903 313.669 331.391C318.308 330.31 326.642 326.479 326.642 326.479C326.642 326.479 330.94 325.251 333.726 327.218C337.648 329.981 339.445 330.993 342.811 329.879C346.176 328.765 348.655 327.161 348.655 327.161L355.284 326.502C355.307 326.502 361.571 310.834 352.998 308.423Z" fill="#F8AE9D"/>
<path d="M327.949 311.629C327.938 311.698 326.608 311.277 324.391 311.14C322.185 310.993 319.058 311.243 315.943 312.573C312.827 313.904 310.473 315.984 309.064 317.679C307.631 319.373 307.017 320.635 306.96 320.589C306.938 320.578 307.074 320.26 307.381 319.713C307.82 318.945 308.318 318.211 308.87 317.519C310.258 315.757 312.623 313.597 315.806 312.244C318.99 310.891 322.185 310.663 324.414 310.891C325.528 310.993 326.426 311.175 327.028 311.334C327.631 311.493 327.961 311.607 327.949 311.629ZM325.948 307.025C325.926 307.116 324.573 306.445 322.242 306.377C319.922 306.274 316.659 306.979 313.611 308.821C310.565 310.675 308.279 313.017 306.665 314.699C305.891 315.518 305.255 316.2 304.754 316.723C304.299 317.201 304.05 317.462 304.026 317.44C304.004 317.428 304.231 317.133 304.652 316.633C305.073 316.121 305.687 315.404 306.471 314.529C308.052 312.801 310.325 310.402 313.429 308.514C316.533 306.638 319.888 305.956 322.253 306.126C323.435 306.194 324.379 306.411 325.004 306.627C325.323 306.718 325.55 306.831 325.709 306.9C325.869 306.968 325.948 307.013 325.948 307.025Z" fill="#EB996E"/>
<path d="M341.629 331.584H253.408C252.201 331.585 251.041 331.12 250.17 330.285C249.298 329.45 248.784 328.31 248.735 327.104L246.085 266.388C245.971 263.727 248.098 261.498 250.758 261.498H344.107C346.768 261.498 348.894 263.716 348.792 266.377L346.313 327.104C346.211 329.606 344.142 331.584 341.629 331.584Z" fill="#413075"/>
<path d="M306.348 297.665C306.348 302.654 302.314 306.687 297.326 306.687C292.337 306.687 288.304 302.654 288.304 297.665C288.304 292.677 292.337 288.643 297.326 288.643C302.314 288.643 306.348 292.698 306.348 297.665Z" fill="#2CB67D"/>
<path d="M306.006 169.287H313.965V203.398H306.006V169.287Z" fill="#F8AE9D"/>
<path d="M309.13 138.808C307.696 140.659 305.166 141.067 303.083 141.433C300.282 141.924 298.897 142.949 297.443 145.698C296.522 147.455 295.601 149.379 293.954 150.33C292.614 151.107 292.663 149.127 292.451 147.593C292.431 147.457 292.404 147.322 292.369 147.19C292.044 145.965 290.742 146.174 290.359 147.382C290.01 148.469 289.264 149.389 288.314 149.902C288.159 149.985 287.994 150.058 287.829 150.027C287.607 149.996 287.432 149.787 287.287 149.598C286.982 149.204 286.68 148.704 286.367 148.174C285.34 146.432 283.395 147.054 282.247 148.72C281.53 149.755 280.677 150.822 279.505 151.062C279.127 151.146 278.652 151.083 278.478 150.717C278.255 150.268 278.603 149.818 278.545 149.358C278.497 148.929 278.312 148.741 278.109 148.375C277.311 146.955 275.483 146.904 274.36 148.083C273.578 148.904 272.763 149.692 271.916 150.445C271.558 150.759 271.034 151.073 270.676 150.759C270.482 150.591 270.434 150.31 270.395 150.038C270.192 148.71 269.998 147.382 269.794 146.054C269.678 145.312 269.281 144.34 268.602 144.527C268.273 144.622 268.079 144.967 267.895 145.28C267.672 145.678 263.689 150.205 263.612 149.86C262.991 147.288 261.722 144.946 261.101 142.374C257.09 125.823 274.892 112.513 288.488 112.44C291.512 112.419 294.274 112.468 297.21 113.169C300.341 113.921 303.645 115.117 306.485 116.8C310.468 119.152 313.482 123.429 312.706 128.531" fill="#413075"/>
<path d="M301.979 133.214C299.979 135.41 299.449 138.501 299.263 141.42C298.989 145.823 299.361 150.397 301.46 154.305C302.058 155.418 302.499 160.924 303.421 160.62C303.716 160.525 303.666 156.255 304.441 153.954C305.637 150.388 311.149 149.028 313.63 151.282C317.592 154.866 315.268 159.222 313.954 161.932C313.17 163.568 311.924 165.404 311.708 167.134C311.443 169.35 311.365 177.424 312.856 179.306C314.101 180.885 315.425 173.258 316.553 171.756C324.899 160.563 332.901 132.063 318.651 125.882C316.484 124.94 309.796 124.455 307.766 125.653" fill="#413075"/>
<path fill-rule="evenodd" clip-rule="evenodd" d="M366.023 64.2581H363.761C363.214 64.2581 362.774 63.8129 362.774 63.2705V61.0092C362.774 60.4624 363.218 60.0217 363.761 60.0217H366.023C366.284 60.0227 366.535 60.1271 366.72 60.3121C366.904 60.4971 367.009 60.7477 367.009 61.0092V63.2705C367.01 63.4003 366.985 63.5288 366.935 63.6488C366.886 63.7688 366.813 63.8778 366.721 63.9695C366.63 64.0613 366.521 64.1341 366.401 64.1836C366.281 64.2331 366.152 64.2584 366.023 64.2581ZM358.181 64.2581H355.919C355.657 64.257 355.407 64.1527 355.222 63.9677C355.037 63.7827 354.933 63.5321 354.932 63.2705V61.0092C354.932 60.4624 355.377 60.0217 355.919 60.0217H358.181C358.443 60.0227 358.693 60.1271 358.878 60.3121C359.063 60.4971 359.167 60.7477 359.168 61.0092V63.2705C359.167 63.5321 359.063 63.7827 358.878 63.9677C358.693 64.1527 358.443 64.257 358.181 64.2581ZM350.334 64.2581H348.072C347.811 64.257 347.56 64.1527 347.375 63.9677C347.19 63.7827 347.086 63.5321 347.085 63.2705V61.0092C347.085 60.4624 347.53 60.0217 348.072 60.0217H350.334C350.596 60.0227 350.846 60.1271 351.031 60.3121C351.216 60.4971 351.32 60.7477 351.321 61.0092V63.2705C351.322 63.4003 351.296 63.5288 351.247 63.6488C351.197 63.7688 351.125 63.8778 351.033 63.9695C350.941 64.0613 350.832 64.1341 350.712 64.1836C350.593 64.2331 350.464 64.2584 350.334 64.2581ZM342.492 64.2581H340.23C339.969 64.257 339.718 64.1527 339.533 63.9677C339.348 63.7827 339.244 63.5321 339.243 63.2705V61.0092C339.243 60.4624 339.688 60.0217 340.23 60.0217H342.492C343.039 60.0217 343.484 60.4669 343.484 61.0092V63.2705C343.481 63.5323 343.376 63.7825 343.19 63.9672C343.004 64.152 342.754 64.2564 342.492 64.2581ZM334.65 64.2581H332.388C331.842 64.2581 331.397 63.8129 331.397 63.2705V61.0092C331.397 60.4624 331.842 60.0217 332.388 60.0217H334.65C334.912 60.0226 335.163 60.1269 335.348 60.3119C335.533 60.4969 335.637 60.7476 335.638 61.0092V63.2705C335.637 63.5322 335.533 63.7829 335.348 63.9679C335.163 64.1529 334.912 64.2572 334.65 64.2581ZM357.893 55.7075H355.632C355.37 55.7067 355.12 55.6024 354.935 55.4173C354.75 55.2323 354.645 54.9816 354.645 54.72V52.4535C354.646 52.192 354.75 51.9415 354.935 51.7566C355.12 51.5717 355.371 51.4675 355.632 51.4667H357.893C358.44 51.4667 358.881 51.9118 358.881 52.4535V54.7155C358.882 54.8456 358.857 54.9746 358.807 55.095C358.758 55.2154 358.685 55.3249 358.594 55.4171C358.502 55.5093 358.393 55.5824 358.273 55.6323C358.152 55.6821 358.024 55.7077 357.893 55.7075ZM350.052 55.7075H347.79C347.528 55.7065 347.278 55.6021 347.093 55.4171C346.908 55.2321 346.804 54.9815 346.803 54.72V52.4535C346.804 52.1921 346.908 51.9417 347.093 51.7568C347.278 51.572 347.528 51.4677 347.79 51.4667H350.052C350.313 51.4677 350.564 51.572 350.749 51.7568C350.933 51.9417 351.038 52.1921 351.039 52.4535V54.7155C351.04 54.8456 351.015 54.9745 350.965 55.0949C350.916 55.2153 350.844 55.3248 350.752 55.417C350.66 55.5092 350.551 55.5824 350.431 55.6323C350.311 55.6821 350.182 55.7077 350.052 55.7075ZM342.21 55.7075H339.948C339.401 55.7075 338.956 55.2623 338.956 54.72V52.4535C338.956 51.9118 339.401 51.4667 339.948 51.4667H342.21C342.472 51.4677 342.722 51.572 342.907 51.7568C343.092 51.9417 343.196 52.1921 343.197 52.4535V54.7155C343.197 55.2623 342.753 55.7075 342.21 55.7075ZM350.334 73.4442H348.072C347.811 73.4432 347.56 73.3388 347.375 73.1538C347.19 72.9688 347.086 72.7182 347.085 72.4567V70.1954C347.085 69.6486 347.53 69.2079 348.072 69.2079H350.334C350.596 69.2089 350.846 69.3133 351.031 69.4983C351.216 69.6833 351.32 69.9339 351.321 70.1954V72.4567C351.321 72.5864 351.296 72.7149 351.247 72.8349C351.197 72.9548 351.125 73.0638 351.033 73.1555C350.941 73.2473 350.832 73.32 350.712 73.3696C350.592 73.4191 350.464 73.4445 350.334 73.4442ZM342.492 73.4442H340.23C339.969 73.4432 339.718 73.3388 339.533 73.1538C339.348 72.9688 339.244 72.7182 339.243 72.4567V70.1954C339.243 69.6486 339.688 69.2079 340.23 69.2079H342.492C343.039 69.2079 343.484 69.6531 343.484 70.1954V72.4567C343.481 72.7185 343.376 72.9687 343.19 73.1534C343.004 73.3381 342.754 73.4426 342.492 73.4442Z" fill="#94A1B2"/>
<path d="M463.843 328.743H131.24C129.463 328.743 128.023 330.183 128.023 331.96C128.023 333.737 129.463 335.177 131.24 335.177H463.843C465.62 335.177 467.06 333.737 467.06 331.96C467.06 330.183 465.62 328.743 463.843 328.743Z" fill="#72757E"/>
<path d="M447.213 299.626L430.232 316.608C429.614 317.226 429.614 318.229 430.232 318.847L430.232 318.848C430.851 319.466 431.853 319.466 432.471 318.848L449.453 301.866C450.071 301.248 450.071 300.245 449.453 299.627L449.453 299.626C448.834 299.008 447.832 299.008 447.213 299.626Z" fill="#94A1B2"/>
<path d="M445.551 311.784L440.654 316.682C440.036 317.3 440.036 318.303 440.654 318.921L440.654 318.921C441.273 319.54 442.275 319.54 442.893 318.921L447.791 314.024C448.409 313.406 448.409 312.403 447.791 311.785L447.79 311.784C447.172 311.166 446.17 311.166 445.551 311.784Z" fill="#94A1B2"/>
<defs>
<linearGradient id="paint0_linear_9_120" x1="432.208" y1="121.64" x2="432.189" y2="99.3995" gradientUnits="userSpaceOnUse">
<stop stop-color="white"/>
<stop offset="1" stop-color="#EEEEEE"/>
</linearGradient>
<linearGradient id="paint1_linear_9_120" x1="411.333" y1="140.369" x2="411.304" y2="118.13" gradientUnits="userSpaceOnUse">
<stop stop-color="white"/>
<stop offset="1" stop-color="#EEEEEE"/>
</linearGradient>
<linearGradient id="paint2_linear_9_120" x1="192.424" y1="254.97" x2="192.178" y2="200.591" gradientUnits="userSpaceOnUse">
<stop stop-color="white"/>
<stop offset="1" stop-color="#EEEEEE"/>
</linearGradient>
<linearGradient id="paint3_linear_9_120" x1="192.424" y1="305.735" x2="192.178" y2="251.355" gradientUnits="userSpaceOnUse">
<stop stop-color="white"/>
<stop offset="1" stop-color="#EEEEEE"/>
</linearGradient>
<linearGradient id="paint4_linear_9_120" x1="181.526" y1="280.352" x2="181.122" y2="225.975" gradientUnits="userSpaceOnUse">
<stop stop-color="white"/>
<stop offset="1" stop-color="#EEEEEE"/>
</linearGradient>
<linearGradient id="paint5_linear_9_120" x1="224.452" y1="280.352" x2="224.047" y2="225.975" gradientUnits="userSpaceOnUse">
<stop stop-color="white"/>
<stop offset="1" stop-color="#EEEEEE"/>
</linearGradient>
<linearGradient id="paint6_linear_9_120" x1="267.378" y1="280.352" x2="266.974" y2="225.975" gradientUnits="userSpaceOnUse">
<stop stop-color="white"/>
<stop offset="1" stop-color="#EEEEEE"/>
</linearGradient>
<linearGradient id="paint7_linear_9_120" x1="257.373" y1="254.97" x2="257.127" y2="200.591" gradientUnits="userSpaceOnUse">
<stop stop-color="white"/>
<stop offset="1" stop-color="#EEEEEE"/>
</linearGradient>
<linearGradient id="paint8_linear_9_120" x1="257.373" y1="305.735" x2="257.127" y2="251.355" gradientUnits="userSpaceOnUse">
<stop stop-color="white"/>
<stop offset="1" stop-color="#EEEEEE"/>
</linearGradient>
<linearGradient id="paint9_linear_9_120" x1="282.266" y1="156.995" x2="281.862" y2="102.618" gradientUnits="userSpaceOnUse">
<stop stop-color="white"/>
<stop offset="1" stop-color="#EEEEEE"/>
</linearGradient>
</defs>
</svg>
