<svg xmlns="http://www.w3.org/2000/svg" viewBox="0 0 505.39 108.13"><defs><style>.cls-1{fill:#7f5af0;}</style></defs><g id="Layer_2" data-name="Layer 2"><g id="Layer_1-2" data-name="Layer 1"><path class="cls-1" d="M64.75,7.28v15H41.18v65H23.58v-65H0v-15Z"/><path class="cls-1" d="M112.72,57.48a38.4,38.4,0,0,1-2,12.8,27.76,27.76,0,0,1-5.86,9.93,26.5,26.5,0,0,1-9.2,6.38,30.72,30.72,0,0,1-12,2.25,30.44,30.44,0,0,1-11.9-2.25,26.41,26.41,0,0,1-9.2-6.38,29.21,29.21,0,0,1-6-9.93,36.69,36.69,0,0,1-2.14-12.8,35.4,35.4,0,0,1,2.2-12.75,29.09,29.09,0,0,1,6.09-9.81,27.49,27.49,0,0,1,9.25-6.32,29.87,29.87,0,0,1,11.68-2.25A30.17,30.17,0,0,1,95.41,28.6a26.85,26.85,0,0,1,9.19,6.32,28.7,28.7,0,0,1,6,9.81A36.29,36.29,0,0,1,112.72,57.48Zm-17.14,0q0-7.78-3.11-12.24a10.13,10.13,0,0,0-8.85-4.45,10.27,10.27,0,0,0-8.91,4.45q-3.17,4.45-3.16,12.24t3.16,12.35a10.18,10.18,0,0,0,8.91,4.57,10,10,0,0,0,8.85-4.57Q95.58,65.27,95.58,57.48Z"/><path class="cls-1" d="M175.81,57.59a43.46,43.46,0,0,1-1.69,12.53,28.24,28.24,0,0,1-5,9.7A22.37,22.37,0,0,1,161,86.13a26.08,26.08,0,0,1-11.16,2.26,29.59,29.59,0,0,1-6.55-.68,31.62,31.62,0,0,1-5.86-1.91v22.33H120.65V30q2.25-.69,5.19-1.3T132,27.59q3.22-.45,6.55-.74c2.22-.18,4.34-.28,6.37-.28A36.4,36.4,0,0,1,158,28.77a27,27,0,0,1,9.7,6.21,26.61,26.61,0,0,1,6,9.75A37.35,37.35,0,0,1,175.81,57.59Zm-17.15.46q0-7.78-3.49-12.47T144.79,40.9c-1.51,0-2.9.06-4.18.17s-2.33.24-3.15.39V71.81a14.41,14.41,0,0,0,4.11,1.69,19.94,19.94,0,0,0,5.14.68Q158.67,74.18,158.66,58.05Z"/><path class="cls-1" d="M225.56,88.84q-19.06,0-29.05-10.6t-10-30.12a46.36,46.36,0,0,1,3-17.32,37.37,37.37,0,0,1,8.35-12.86,34.76,34.76,0,0,1,12.64-8,45.41,45.41,0,0,1,15.9-2.71,51.92,51.92,0,0,1,9,.73,58.67,58.67,0,0,1,7.1,1.7,34.75,34.75,0,0,1,5.08,2c1.35.68,2.33,1.2,2.93,1.58l-5.07,14.21a43,43,0,0,0-8.41-3.27,40.19,40.19,0,0,0-10.88-1.35,24.16,24.16,0,0,0-8,1.35,18,18,0,0,0-6.88,4.34,21.69,21.69,0,0,0-4.79,7.73,32.3,32.3,0,0,0-1.81,11.51A41.07,41.07,0,0,0,206,57.88a21.31,21.31,0,0,0,3.83,8.06,18.33,18.33,0,0,0,6.94,5.36,24.65,24.65,0,0,0,10.38,2,46.09,46.09,0,0,0,6.88-.45,49.53,49.53,0,0,0,5.42-1.07,27.78,27.78,0,0,0,4.17-1.41q1.8-.78,3.27-1.47L251.73,83A41.64,41.64,0,0,1,241.24,87,61.3,61.3,0,0,1,225.56,88.84Z"/><path class="cls-1" d="M392.6,55.79q0-8.13-2.09-11.51t-7.16-3.38c-1.06,0-2.14.06-3.27.17s-2.22.24-3.27.39v45.8H360V30c1.42-.38,3.1-.78,5-1.19s4-.79,6.09-1.13,4.34-.6,6.6-.79,4.47-.28,6.65-.28a28,28,0,0,1,10.44,1.64,23.63,23.63,0,0,1,6.6,3.89,31.47,31.47,0,0,1,16.92-5.53,29.78,29.78,0,0,1,11.68,2,17.6,17.6,0,0,1,7.27,5.59A21.11,21.11,0,0,1,441,42.7a55.92,55.92,0,0,1,1,11.06v33.5H425.2V55.79q0-8.13-2.09-11.51T416,40.9a15.17,15.17,0,0,0-3.78.67,14.8,14.8,0,0,0-4,1.7,26,26,0,0,1,1,5.47q.22,2.88.23,6.15V87.26H392.6Z"/><path class="cls-1" d="M505.39,57.59a43.8,43.8,0,0,1-1.69,12.53,28.26,28.26,0,0,1-5,9.7,22.33,22.33,0,0,1-8.12,6.31,26.12,26.12,0,0,1-11.17,2.26,29.57,29.57,0,0,1-6.54-.68A32,32,0,0,1,467,85.8v22.33H450.22V30q2.26-.69,5.19-1.3t6.15-1.07c2.15-.3,4.32-.55,6.54-.74s4.35-.28,6.38-.28a36.31,36.31,0,0,1,13.08,2.2A27,27,0,0,1,497.27,35a26.61,26.61,0,0,1,6,9.75A37.59,37.59,0,0,1,505.39,57.59Zm-17.15.46q0-7.78-3.5-12.47T474.36,40.9c-1.5,0-2.89.06-4.17.17s-2.33.24-3.16.39V71.81a14.49,14.49,0,0,0,4.12,1.69,19.86,19.86,0,0,0,5.13.68Q488.24,74.18,488.24,58.05Z"/><path class="cls-1" d="M265,87.26a6.29,6.29,0,1,1,0-12.57h5.64l27.8-51L290.33,9.3A6.29,6.29,0,0,1,292.84.77a6.38,6.38,0,0,1,3-.77,6.29,6.29,0,0,1,5.52,3.28l4.2,7.3,3.65-7.3a6.29,6.29,0,0,1,11,6l-7.53,14.42,27.8,51h5.64a6.29,6.29,0,1,1,0,12.57Zm61.24-12.57L305.57,36.85,284.94,74.69Z"/></g></g></svg>