<svg xmlns="http://www.w3.org/2000/svg" viewBox="0 0 504.08 433.68"><defs><style>.cls-1,.cls-2,.cls-3{fill:none;stroke-miterlimit:10;stroke-width:5.5px;}.cls-1{stroke:#ff7146;}.cls-2{stroke:#00bf9c;}.cls-3{stroke:#d95cc4;}</style></defs><g id="Layer_2" data-name="Layer 2"><g id="Layer_1-2" data-name="Layer 1"><polygon class="cls-1" points="170.24 85.69 109.47 85.69 88.44 64.6 67.41 85.69 6.64 85.69 58.08 34.24 88.44 3.89 170.24 85.69"/><polygon class="cls-1" points="170.24 172 109.47 172 88.44 150.91 67.41 172 6.64 172 58.08 120.56 88.44 90.2 170.24 172"/><polygon class="cls-1" points="170.24 258.31 109.47 258.31 88.44 237.22 67.41 258.31 6.64 258.31 58.08 206.87 88.44 176.51 170.24 258.31"/><polygon class="cls-1" points="170.24 344.62 109.47 344.62 88.44 323.53 67.41 344.62 6.64 344.62 58.08 293.18 88.44 262.82 170.24 344.62"/><polygon class="cls-1" points="170.24 430.93 109.47 430.93 88.44 409.84 67.41 430.93 6.64 430.93 58.08 379.49 88.44 349.13 170.24 430.93"/><polygon class="cls-2" points="333.84 85.69 273.07 85.69 252.04 64.6 231.01 85.69 170.24 85.69 221.69 34.24 252.04 3.89 333.84 85.69"/><polygon class="cls-2" points="333.84 172 273.07 172 252.04 150.91 231.01 172 170.24 172 221.69 120.56 252.04 90.2 333.84 172"/><polygon class="cls-2" points="333.84 258.31 273.07 258.31 252.04 237.22 231.01 258.31 170.24 258.31 221.69 206.87 252.04 176.51 333.84 258.31"/><polygon class="cls-2" points="333.84 344.62 273.07 344.62 252.04 323.53 231.01 344.62 170.24 344.62 221.69 293.18 252.04 262.82 333.84 344.62"/><polygon class="cls-2" points="333.84 430.93 273.07 430.93 252.04 409.84 231.01 430.93 170.24 430.93 221.69 379.49 252.04 349.13 333.84 430.93"/><polygon class="cls-3" points="497.44 85.69 436.67 85.69 415.64 64.6 394.61 85.69 333.84 85.69 385.29 34.24 415.64 3.89 497.44 85.69"/><polygon class="cls-3" points="497.44 172 436.67 172 415.64 150.91 394.61 172 333.84 172 385.29 120.56 415.64 90.2 497.44 172"/><polygon class="cls-3" points="497.44 258.31 436.67 258.31 415.64 237.22 394.61 258.31 333.84 258.31 385.29 206.87 415.64 176.51 497.44 258.31"/><polygon class="cls-3" points="497.44 344.62 436.67 344.62 415.64 323.53 394.61 344.62 333.84 344.62 385.29 293.18 415.64 262.82 497.44 344.62"/><polygon class="cls-3" points="497.44 430.93 436.67 430.93 415.64 409.84 394.61 430.93 333.84 430.93 385.29 379.49 415.64 349.13 497.44 430.93"/></g></g></svg>